<svg width="24" height="24" viewBox="0 0 24 24" fill="none" xmlns="http://www.w3.org/2000/svg">
<mask id="mask0_2353_53769" style="mask-type:alpha" maskUnits="userSpaceOnUse" x="3" y="3" width="18" height="18">
<path d="M19.2193 15.2656L16.6793 14.9756C16.0693 14.9056 15.4693 15.1156 15.0393 15.5456L13.1993 17.3856C10.3693 15.9456 8.0493 13.6356 6.6093 10.7956L8.4593 8.94562C8.8893 8.51562 9.0993 7.91563 9.0293 7.30562L8.7393 4.78562C8.6193 3.77562 7.7693 3.01562 6.7493 3.01562H5.0193C3.8893 3.01562 2.9493 3.95562 3.0193 5.08562C3.5493 13.6256 10.3793 20.4456 18.9093 20.9756C20.0393 21.0456 20.9793 20.1056 20.9793 18.9756V17.2456C20.9893 16.2356 20.2293 15.3856 19.2193 15.2656Z" fill="black"/>
</mask>
<g mask="url(#mask0_2353_53769)">
<rect x="3" y="3" width="24" height="24" fill="url(#paint0_linear_2353_53769)"/>
</g>
<defs>
<linearGradient id="paint0_linear_2353_53769" x1="27" y1="27.0583" x2="3" y2="3.0583" gradientUnits="userSpaceOnUse">
<stop stop-color="#FF1843"/>
<stop offset="1" stop-color="#FF7E95"/>
</linearGradient>
</defs>
</svg>
