<svg width="60" height="60" viewBox="0 0 60 60" fill="none" xmlns="http://www.w3.org/2000/svg">
<path d="M31.1973 0.0234763C14.2373 -0.636889 0.174177 12.7166 0.0016017 29.6889C-0.10934 40.5488 5.5522 50.0943 14.1053 55.4488C15.5457 56.3506 17.4229 55.3463 17.4811 53.6478L18.0076 37.9478C7.29732 35.5969 12.2263 14.423 20.0574 14.423C27.8902 14.423 32.8191 35.5969 22.1106 37.9478L22.6671 54.5746C22.764 57.4128 24.9863 59.7188 27.8197 59.922C28.54 59.9738 29.2672 60 29.9998 60C30.787 60 31.5688 59.9695 32.3419 59.9098C35.1577 59.6924 37.3536 57.3821 37.4452 54.5598L38.0105 37.0709C29.5596 35.3293 31.479 22.4812 34.6928 16.0501C35.1366 15.1608 36.3182 15.1555 36.3182 15.9497V27.6761C36.3182 27.9666 36.4379 28.2325 36.6281 28.4227C36.8201 28.6147 37.0842 28.7326 37.3765 28.7326C37.9594 28.7326 38.4331 28.2589 38.4331 27.6761V16.0483C38.4331 15.5993 38.6145 15.1925 38.9086 14.8984C39.2044 14.6061 39.6112 14.423 40.0585 14.423C40.9584 14.423 41.6857 15.1503 41.6857 16.0483V27.6761C41.6857 27.9666 41.8036 28.2325 41.9938 28.4227C42.1858 28.6147 42.4517 28.7326 42.7422 28.7326C43.3251 28.7326 43.7988 28.2589 43.7988 27.6761V15.9497C43.7988 15.1555 44.9822 15.1608 45.426 16.0501C48.6415 22.4812 50.561 35.3293 42.11 37.0709L42.6436 53.5665C42.7 55.2801 44.5965 56.2718 46.0441 55.3537C54.4774 50.0052 60.0597 40.5664 59.9998 29.8262C59.9082 13.6781 47.1887 0.6451 31.1973 0.0234763Z" fill="url(#paint0_linear_5190_5164)"/>
<defs>
<linearGradient id="paint0_linear_5190_5164" x1="59.9612" y1="59.9612" x2="-4.10904e-06" y2="-2.44827e-05" gradientUnits="userSpaceOnUse">
<stop stop-color="#1867FF"/>
<stop offset="1" stop-color="#74A3FF"/>
</linearGradient>
</defs>
</svg>
