<svg width="76" height="56" viewBox="0 0 76 56" fill="none" xmlns="http://www.w3.org/2000/svg">
<path fill-rule="evenodd" clip-rule="evenodd" d="M38 0.5C49.375 0.5 58.8437 9.40312 60.9687 21.2625C69.0937 21.8813 75.5 29.2375 75.5 38.3125C75.5 47.8 68.5 55.5 59.875 55.5H51.3239L40.1751 43.2363L43.0582 40.0649C46.0589 41.5967 50.2756 40.518 53.3941 37.0877C57.1401 32.9671 57.8658 27.0558 54.9827 23.8844C52.1192 20.7346 46.7454 21.5113 42.9797 25.6319C39.8613 29.0622 38.8807 33.7006 40.2732 37.0014L23.4563 55.5H19.25C8.90625 55.5 0.5 46.2531 0.5 34.875C0.5 24.2531 7.8125 15.4875 17.2187 14.3875C21.125 6.1375 28.9687 0.5 38 0.5ZM29.762 43.9698L35.3124 37.8644L23.1721 24.5317C22.2307 23.4961 20.6028 23.7766 20.0144 25.1142C18.6219 28.3287 19.1319 32.2767 21.5442 34.9519L29.762 43.9698Z" fill="url(#paint0_linear_5190_8784)"/>
<path d="M28.9991 55.5H45.7931L37.4097 46.2782L28.9991 55.5Z" fill="url(#paint1_linear_5190_8784)"/>
<defs>
<linearGradient id="paint0_linear_5190_8784" x1="75.5" y1="55.6336" x2="23.0434" y2="-15.8982" gradientUnits="userSpaceOnUse">
<stop stop-color="#FFB800"/>
<stop offset="1" stop-color="#FFDA7B"/>
</linearGradient>
<linearGradient id="paint1_linear_5190_8784" x1="75.5" y1="55.6336" x2="23.0434" y2="-15.8982" gradientUnits="userSpaceOnUse">
<stop stop-color="#FFB800"/>
<stop offset="1" stop-color="#FFDA7B"/>
</linearGradient>
</defs>
</svg>
