<svg width="75" height="73" viewBox="0 0 75 73" fill="none" xmlns="http://www.w3.org/2000/svg">
<circle cx="38.5" cy="36.5" r="28.5" fill="url(#paint0_linear_2355_54340)"/>
<circle cx="72" cy="11" r="3" fill="#FFB800" fill-opacity="0.7"/>
<circle cx="8" cy="4" r="4" fill="#FFB800" fill-opacity="0.8"/>
<circle cx="4" cy="54" r="2" fill="#FFB800" fill-opacity="0.7"/>
<circle cx="67" cy="65" r="1" fill="#FFB800" fill-opacity="0.7"/>
<path d="M37.3 35.2945C35.03 34.7045 34.3 34.0945 34.3 33.1445C34.3 32.0545 35.31 31.2945 37 31.2945C38.42 31.2945 39.13 31.8345 39.39 32.6945C39.51 33.0945 39.84 33.3945 40.26 33.3945H40.56C41.22 33.3945 41.69 32.7445 41.46 32.1245C41.04 30.9445 40.06 29.9645 38.5 29.5845V28.8945C38.5 28.0645 37.83 27.3945 37 27.3945C36.17 27.3945 35.5 28.0645 35.5 28.8945V29.5545C33.56 29.9745 32 31.2345 32 33.1645C32 35.4745 33.91 36.6245 36.7 37.2945C39.2 37.8945 39.7 38.7745 39.7 39.7045C39.7 40.3945 39.21 41.4945 37 41.4945C35.35 41.4945 34.5 40.9045 34.17 40.0645C34.02 39.6745 33.68 39.3945 33.27 39.3945H32.99C32.32 39.3945 31.85 40.0745 32.1 40.6945C32.67 42.0845 34 42.9045 35.5 43.2245V43.8945C35.5 44.7245 36.17 45.3945 37 45.3945C37.83 45.3945 38.5 44.7245 38.5 43.8945V43.2445C40.45 42.8745 42 41.7445 42 39.6945C42 36.8545 39.57 35.8845 37.3 35.2945Z" fill="white"/>
<circle cx="43" cy="2" r="1" fill="#FFB800" fill-opacity="0.7"/>
<circle cx="25.5" cy="71.5" r="1.5" fill="#FFB800" fill-opacity="0.7"/>
<circle cx="49.5" cy="69.5" r="0.5" fill="#FFB800" fill-opacity="0.7"/>
<circle cx="69" cy="45" r="1" fill="#FFB800" fill-opacity="0.7"/>
<circle cx="0.5" cy="30.5" r="0.5" fill="#FFB800" fill-opacity="0.7"/>
<defs>
<linearGradient id="paint0_linear_2355_54340" x1="67" y1="65.1385" x2="10" y2="8.13847" gradientUnits="userSpaceOnUse">
<stop stop-color="#FFB800"/>
<stop offset="1" stop-color="#FFDA7B"/>
</linearGradient>
</defs>
</svg>
