<svg width="26" height="25" viewBox="0 0 26 25" fill="none" xmlns="http://www.w3.org/2000/svg">
<g clip-path="url(#clip0_2346_54214)">
<path d="M13 25C19.9036 25 25.5 19.4036 25.5 12.5C25.5 5.59644 19.9036 0 13 0C6.09644 0 0.5 5.59644 0.5 12.5C0.5 19.4036 6.09644 25 13 25Z" fill="#3C5A9A"/>
<path d="M17.063 3.83594H14.2939C12.6507 3.83594 10.8229 4.52707 10.8229 6.90903C10.8309 7.73899 10.8229 8.53386 10.8229 9.42842H8.92188V12.4535H10.8817V21.1622H14.483V12.396H16.86L17.0751 9.41993H14.421C14.421 9.41993 14.4269 8.09604 14.421 7.71157C14.421 6.77027 15.4004 6.82418 15.4594 6.82418C15.9254 6.82418 16.8317 6.82554 17.0643 6.82418V3.83594H17.063Z" fill="white"/>
</g>
<defs>
<clipPath id="clip0_2346_54214">
<rect width="25" height="25" fill="white" transform="translate(0.5)"/>
</clipPath>
</defs>
</svg>
