<svg width="25" height="25" viewBox="0 0 25 25" fill="none" xmlns="http://www.w3.org/2000/svg">
<g clip-path="url(#clip0_2346_54219)">
<path d="M24.4905 12.7343C24.4905 11.71 24.4088 10.9626 24.2321 10.1875H12.7422V14.8104H19.4865C19.3506 15.9593 18.6163 17.6894 16.9846 18.852L16.9617 19.0068L20.5946 21.8716L20.8463 21.8971C23.1579 19.724 24.4905 16.5267 24.4905 12.7343Z" fill="#4285F4"/>
<path d="M12.7372 24.9152C16.0413 24.9152 18.8152 23.8079 20.8413 21.8978L16.9796 18.8527C15.9462 19.5863 14.5592 20.0984 12.7372 20.0984C9.50097 20.0984 6.75428 17.9254 5.77516 14.9219L5.63164 14.9343L1.85409 17.9101L1.80469 18.0499C3.81711 22.1192 7.95078 24.9152 12.7372 24.9152Z" fill="#34A853"/>
<path d="M5.7758 14.9209C5.51745 14.1458 5.36793 13.3153 5.36793 12.4572C5.36793 11.599 5.51745 10.7685 5.76221 9.99343L5.75536 9.82835L1.93048 6.80469L1.80533 6.86528C0.97592 8.55392 0.5 10.4502 0.5 12.4572C0.5 14.4641 0.97592 16.3603 1.80533 18.049L5.7758 14.9209Z" fill="#FBBC05"/>
<path d="M12.7372 4.8167C15.0351 4.8167 16.5852 5.8271 17.4691 6.67147L20.9228 3.23884C18.8017 1.23187 16.0413 0 12.7372 0C7.95077 0 3.8171 2.7959 1.80469 6.86517L5.76156 9.99332C6.75427 6.98979 9.50096 4.8167 12.7372 4.8167Z" fill="#EB4335"/>
</g>
<defs>
<clipPath id="clip0_2346_54219">
<rect width="24" height="25" fill="white" transform="translate(0.5)"/>
</clipPath>
</defs>
</svg>
