<svg width="82" height="60" viewBox="0 0 82 60" fill="none" xmlns="http://www.w3.org/2000/svg">
<path d="M81.6454 26.8896C81.4864 18.2578 74.5811 11.1472 65.9554 10.7508C63.9554 10.6583 62.0278 10.9259 60.2351 11.4893C56.549 4.64826 49.3196 0 41.0038 0C32.688 0 25.4586 4.64826 21.7725 11.4893C19.9798 10.9259 18.0522 10.6583 16.0522 10.7508C7.42856 11.1472 0.521186 18.2578 0.362233 26.8896C0.20328 35.5273 6.69416 42.6802 15.0563 43.5736V57.9578C15.0563 59.0865 15.9718 60 17.0985 60H25.5814C26.6739 60 27.5713 59.1429 27.6216 58.0523L28.2313 44.8331C16.9195 42.2899 22.1468 19.8695 30.4505 19.8695C38.7543 19.8695 43.9837 42.2899 32.6719 44.8331L33.2815 58.0523C33.3318 59.1429 34.2312 60 35.3218 60H46.8106C47.9032 60 48.8025 59.1409 48.8508 58.0483L49.4685 43.9015C40.541 42.0243 42.5773 28.4167 45.9857 21.5958C46.4565 20.6542 47.712 20.6461 47.712 21.4912V33.9378C47.712 34.5696 48.2331 35.0786 48.8689 35.0585C49.4826 35.0404 49.9555 34.5052 49.9555 33.8895V21.6542C49.9555 20.7347 50.6516 19.9319 51.5691 19.8735C52.5752 19.8111 53.4081 20.6059 53.4081 21.5958V33.9378C53.4081 34.5696 53.9293 35.0786 54.5631 35.0585C55.1788 35.0404 55.6516 34.5052 55.6516 33.8895V21.4912C55.6516 20.6461 56.9071 20.6542 57.3779 21.5958C60.7864 28.4167 62.8206 42.0243 53.8951 43.9015L54.5148 58.0483C54.5631 59.1409 55.4625 60 56.555 60H64.9091C66.0379 60 66.9513 59.0865 66.9513 57.9578V43.5736C75.3155 42.6802 81.8043 35.5273 81.6454 26.8896Z" fill="url(#paint0_linear_5190_8053)"/>
<defs>
<linearGradient id="paint0_linear_5190_8053" x1="81.3594" y1="60" x2="0.359376" y2="-7.77579e-07" gradientUnits="userSpaceOnUse">
<stop stop-color="#23A757"/>
<stop offset="1" stop-color="#65FFA1"/>
</linearGradient>
</defs>
</svg>
