<svg width="69" height="61" viewBox="0 0 69 61" fill="none" xmlns="http://www.w3.org/2000/svg">
<path d="M30.4408 58.7107C33.0248 61.0907 37.0028 61.0907 39.5868 58.7447L39.9268 58.4387L40.1322 58.2521C42.6401 55.9735 45.0254 53.8063 47.2713 51.7274L35.689 40.1825L23.4855 52.3861C25.568 54.3 27.766 56.289 30.0668 58.3707L30.4408 58.7107Z" fill="url(#paint0_linear_5190_7926)"/>
<path fill-rule="evenodd" clip-rule="evenodd" d="M20.1051 49.2452C8.01907 37.8659 0.643317 28.996 0.996517 18.4544C1.20052 12.6743 4.15854 7.13228 8.95258 3.86825C17.9287 -2.2518 29.0128 0.604225 34.9968 7.60828C40.9809 0.604225 52.0649 -2.2858 61.041 3.86825C65.835 7.13228 68.7931 12.6743 68.9971 18.4544C69.3695 28.7761 62.2905 37.4951 50.6427 48.5687L32.3128 30.2388C33.9547 26.7007 32.7984 21.7288 29.1215 18.052C24.6816 13.6351 18.3453 12.8026 14.9691 16.1789C11.5698 19.5782 12.4254 25.9144 16.8422 30.3313C20.5191 34.0081 25.4909 35.1644 29.0291 33.5225L32.4284 36.9219L20.1051 49.2452ZM44.7054 37.7082L38.161 31.1639L52.4753 16.8727C53.5853 15.7627 55.5047 16.0633 56.1984 17.497C57.8403 20.9427 57.2391 25.1745 54.3947 28.042L44.7054 37.7082Z" fill="url(#paint1_linear_5190_7926)"/>
<defs>
<linearGradient id="paint0_linear_5190_7926" x1="69.0111" y1="60.6458" x2="9.48093" y2="-6.84826" gradientUnits="userSpaceOnUse">
<stop stop-color="#FF1843"/>
<stop offset="1" stop-color="#FF7E95"/>
</linearGradient>
<linearGradient id="paint1_linear_5190_7926" x1="69.0111" y1="60.6458" x2="9.48093" y2="-6.84826" gradientUnits="userSpaceOnUse">
<stop stop-color="#FF1843"/>
<stop offset="1" stop-color="#FF7E95"/>
</linearGradient>
</defs>
</svg>
