<svg width="86" height="24" viewBox="0 0 86 24" fill="none" xmlns="http://www.w3.org/2000/svg">
<path d="M32.1839 6.15625H27.4311C27.2738 6.15615 27.1216 6.21255 27.0019 6.31529C26.8823 6.41803 26.8031 6.56036 26.7785 6.71662L24.8563 18.97C24.8475 19.0269 24.851 19.085 24.8666 19.1404C24.8823 19.1957 24.9097 19.247 24.9469 19.2907C24.9842 19.3344 25.0304 19.3695 25.0824 19.3935C25.1344 19.4175 25.191 19.4299 25.2483 19.4298H27.5173C27.6747 19.4299 27.827 19.3734 27.9467 19.2705C28.0663 19.1676 28.1455 19.0251 28.1698 18.8687L28.6883 15.5638C28.7126 15.4075 28.7917 15.2651 28.9112 15.1623C29.0307 15.0594 29.1828 15.0028 29.3401 15.0027H30.8447C33.9755 15.0027 35.7823 13.4795 36.2542 10.4611C36.4669 9.14048 36.2632 8.10288 35.6482 7.37621C34.9727 6.57828 33.7746 6.15625 32.1839 6.15625ZM32.7322 10.6315C32.4723 12.3462 31.1693 12.3462 29.9093 12.3462H29.1921L29.6953 9.14397C29.71 9.05028 29.7575 8.96496 29.8292 8.90335C29.9009 8.84174 29.9922 8.80789 30.0865 8.80789H30.4152C31.2735 8.80789 32.0831 8.80789 32.5015 9.29978C32.751 9.59325 32.8274 10.0292 32.7322 10.6315ZM46.3908 10.5763H44.1148C44.0205 10.5763 43.9292 10.6102 43.8575 10.6718C43.7858 10.7334 43.7383 10.8187 43.7236 10.9124L43.6228 11.5525L43.4636 11.3205C42.9709 10.6015 41.8722 10.3611 40.7756 10.3611C38.2605 10.3611 36.1124 12.2763 35.6941 14.9629C35.4766 16.303 35.7858 17.5845 36.5419 18.4782C37.2355 19.2998 38.2279 19.6422 39.4086 19.6422C41.4351 19.6422 42.5588 18.3321 42.5588 18.3321L42.4573 18.968C42.4483 19.0248 42.4516 19.0829 42.4671 19.1384C42.4826 19.1938 42.5098 19.2452 42.5469 19.289C42.584 19.3329 42.6302 19.3681 42.6821 19.3923C42.7341 19.4165 42.7907 19.429 42.8479 19.4291H44.898C45.0555 19.4292 45.2078 19.3727 45.3274 19.2698C45.4471 19.1669 45.5262 19.0244 45.5506 18.868L46.7806 11.0361C46.7897 10.9794 46.7864 10.9214 46.771 10.866C46.7555 10.8107 46.7283 10.7594 46.6913 10.7157C46.6542 10.672 46.6081 10.6369 46.5563 10.6128C46.5044 10.5888 46.4479 10.5763 46.3908 10.5763ZM43.2183 15.03C42.9987 16.3373 41.9667 17.2149 40.6505 17.2149C39.9896 17.2149 39.4614 17.0018 39.1223 16.5979C38.7859 16.1968 38.658 15.626 38.7651 14.9901C38.9701 13.694 40.0195 12.7878 41.3155 12.7878C41.9619 12.7878 42.4872 13.0037 42.8333 13.411C43.1801 13.8226 43.3177 14.3969 43.2183 15.03ZM58.5121 10.5763H56.225C56.1172 10.5765 56.011 10.6031 55.9157 10.6539C55.8204 10.7047 55.7388 10.7781 55.6781 10.8677L52.5237 15.5393L51.1866 11.0501C51.1456 10.9132 51.0618 10.7932 50.9476 10.7078C50.8335 10.6225 50.6951 10.5764 50.5528 10.5763H48.3054C48.2423 10.5762 48.1801 10.5912 48.1239 10.62C48.0677 10.6489 48.0192 10.6909 47.9825 10.7424C47.9457 10.794 47.9217 10.8536 47.9125 10.9163C47.9032 10.9791 47.909 11.0431 47.9294 11.1032L50.4486 18.5361L48.0802 21.8977C48.0381 21.9573 48.0131 22.0274 48.008 22.1003C48.0029 22.1732 48.0179 22.2461 48.0513 22.3111C48.0846 22.376 48.1351 22.4305 48.1972 22.4685C48.2593 22.5065 48.3307 22.5266 48.4034 22.5265H50.6877C50.7943 22.5267 50.8994 22.5008 50.9939 22.4512C51.0885 22.4015 51.1696 22.3295 51.2304 22.2414L58.8374 11.2017C58.8786 11.142 58.9028 11.072 58.9073 10.9995C58.9118 10.9269 58.8965 10.8545 58.863 10.7901C58.8295 10.7256 58.779 10.6717 58.7172 10.634C58.6554 10.5963 58.5844 10.5764 58.5121 10.5763Z" fill="#253B80"/>
<path d="M66.0824 6.15695H61.329C61.1717 6.15702 61.0197 6.21349 60.9002 6.31622C60.7807 6.41894 60.7016 6.56118 60.6771 6.71732L58.7549 18.9707C58.7459 19.0275 58.7493 19.0855 58.7649 19.1409C58.7804 19.1962 58.8076 19.2474 58.8447 19.2911C58.8819 19.3348 58.928 19.3699 58.9799 19.394C59.0318 19.418 59.0883 19.4305 59.1454 19.4305H61.5847C61.6948 19.4303 61.8011 19.3907 61.8847 19.3187C61.9683 19.2467 62.0236 19.1471 62.0406 19.0378L62.5861 15.5645C62.6105 15.4082 62.6895 15.2658 62.809 15.163C62.9286 15.0601 63.0807 15.0035 63.238 15.0034H64.7419C67.8733 15.0034 69.6795 13.4802 70.1521 10.4618C70.3654 9.14118 70.1604 8.10358 69.5454 7.37691C68.8706 6.57897 67.6732 6.15695 66.0824 6.15695ZM66.6308 10.6322C66.3715 12.3469 65.0685 12.3469 63.8079 12.3469H63.0914L63.5952 9.14467C63.6097 9.05098 63.657 8.96559 63.7286 8.90394C63.8003 8.84229 63.8915 8.80847 63.9858 8.80858H64.3145C65.1721 8.80858 65.9824 8.80859 66.4007 9.30048C66.6502 9.59394 66.726 10.0299 66.6308 10.6322ZM80.2887 10.577H78.0141C77.9197 10.5768 77.8284 10.6106 77.7568 10.6722C77.6851 10.7339 77.6378 10.8194 77.6235 10.9131L77.5227 11.5532L77.3629 11.3212C76.8702 10.6022 75.7722 10.3618 74.6755 10.3618C72.1605 10.3618 70.0131 12.277 69.5947 14.9636C69.3779 16.3037 69.6858 17.5852 70.4419 18.4788C71.1368 19.3005 72.1278 19.6429 73.3086 19.6429C75.335 19.6429 76.4588 18.3328 76.4588 18.3328L76.3573 18.9686C76.3482 19.0256 76.3516 19.0839 76.3671 19.1394C76.3827 19.1949 76.41 19.2464 76.4473 19.2903C76.4846 19.3341 76.5309 19.3693 76.583 19.3934C76.6352 19.4175 76.6919 19.4299 76.7493 19.4298H78.7987C78.956 19.4297 79.1081 19.3731 79.2276 19.2703C79.3471 19.1674 79.4262 19.025 79.4505 18.8687L80.6813 11.0368C80.69 10.9799 80.6864 10.9218 80.6707 10.8664C80.6549 10.8111 80.6275 10.7598 80.5902 10.7161C80.5529 10.6724 80.5066 10.6374 80.4546 10.6134C80.4025 10.5894 80.3459 10.577 80.2887 10.577ZM77.1162 15.0307C76.898 16.338 75.8646 17.2156 74.5484 17.2156C73.8888 17.2156 73.3593 17.0025 73.0201 16.5986C72.6838 16.1975 72.5573 15.6267 72.6629 14.9908C72.8693 13.6947 73.9173 12.7885 75.2134 12.7885C75.8597 12.7885 76.3851 13.0044 76.7312 13.4117C77.0794 13.8233 77.217 14.3976 77.1162 15.0307ZM82.9719 6.49303L81.0211 18.9707C81.0122 19.0275 81.0156 19.0855 81.0311 19.1409C81.0466 19.1962 81.0739 19.2474 81.111 19.2911C81.1481 19.3348 81.1942 19.3699 81.2461 19.394C81.2981 19.418 81.3545 19.4305 81.4117 19.4305H83.3729C83.6988 19.4305 83.9754 19.1929 84.0254 18.8694L85.949 6.61671C85.958 6.55991 85.9546 6.50184 85.9391 6.4465C85.9235 6.39115 85.8963 6.33984 85.8592 6.29609C85.8221 6.25233 85.776 6.21718 85.7241 6.19304C85.6722 6.1689 85.6157 6.15635 85.5585 6.15625H83.3624C83.2681 6.15659 83.1771 6.19066 83.1055 6.25237C83.0339 6.31408 82.9866 6.3994 82.9719 6.49303Z" fill="#179BD7"/>
<path d="M5.11686 21.8112L5.48032 19.4901L4.6707 19.4712H0.804688L3.49137 2.34351C3.49937 2.29118 3.52581 2.24348 3.56586 2.2091C3.60592 2.17473 3.65692 2.15597 3.70959 2.15625H10.2282C12.3923 2.15625 13.8858 2.60902 14.6655 3.50268C15.031 3.92191 15.2638 4.36001 15.3764 4.84213C15.4946 5.348 15.4967 5.95239 15.3813 6.68954L15.373 6.74334V7.21567L15.7385 7.42389C16.0176 7.56604 16.2684 7.75832 16.4786 7.99125C16.7914 8.34969 16.9936 8.80526 17.0791 9.34537C17.1673 9.90085 17.1381 10.5618 16.9936 11.3102C16.8268 12.171 16.5572 12.9207 16.193 13.5342C15.8717 14.0838 15.4397 14.5597 14.9247 14.9316C14.441 15.2768 13.8663 15.5388 13.2165 15.7065C12.5869 15.8714 11.869 15.9545 11.0816 15.9545H10.5743C10.2116 15.9545 9.85921 16.0859 9.58262 16.3214C9.30642 16.5594 9.1232 16.8882 9.06558 17.2493L9.02735 17.4582L8.38522 21.5492L8.35603 21.6994C8.34839 21.7469 8.33518 21.7707 8.31572 21.7867C8.29687 21.8022 8.27336 21.8109 8.24901 21.8112H5.11686Z" fill="#253B80"/>
<path d="M16.0838 6.79688C16.0644 6.92195 16.0421 7.04981 16.0171 7.18117C15.1575 11.6187 12.2164 13.1517 8.46021 13.1517H6.5477C6.08834 13.1517 5.70125 13.4871 5.62967 13.9427L4.65048 20.1864L4.3732 21.9563C4.36215 22.0265 4.36637 22.0983 4.38556 22.1667C4.40475 22.2351 4.43845 22.2985 4.48436 22.3525C4.53026 22.4066 4.58727 22.45 4.65146 22.4798C4.71565 22.5096 4.78549 22.525 4.85619 22.525H8.24825C8.64993 22.525 8.99115 22.2316 9.05439 21.8333L9.08775 21.66L9.72641 17.5851L9.76741 17.3615C9.82996 16.9618 10.1719 16.6684 10.5736 16.6684H11.0809C14.3673 16.6684 16.94 15.3268 17.6919 11.4448C18.0061 9.82303 17.8434 8.46891 17.0123 7.51656C16.7488 7.22195 16.4342 6.97807 16.0838 6.79688Z" fill="#179BD7"/>
<path d="M15.1877 6.43548C14.9132 6.35565 14.634 6.29334 14.3517 6.24892C13.7939 6.16273 13.2301 6.12137 12.6657 6.12525H7.55644C7.36199 6.1251 7.17391 6.19489 7.02619 6.32201C6.87847 6.44914 6.78085 6.6252 6.75099 6.81838L5.66409 13.7399L5.63281 13.9418C5.66667 13.7215 5.77785 13.5206 5.94624 13.3755C6.11462 13.2304 6.32909 13.1508 6.55084 13.1509H8.46335C12.2196 13.1509 15.1606 11.6172 16.0203 7.18031C16.046 7.04896 16.0675 6.92109 16.087 6.79602C15.8601 6.67642 15.6237 6.57615 15.3802 6.49627C15.3164 6.47497 15.2522 6.45471 15.1877 6.43548Z" fill="#222D65"/>
<path d="M6.7437 6.82084C6.77331 6.62761 6.87087 6.45146 7.01867 6.3244C7.16647 6.19734 7.35469 6.1278 7.54915 6.12841H12.6584C13.2637 6.12841 13.8287 6.16824 14.3444 6.25208C14.6933 6.30722 15.0374 6.38969 15.3736 6.49873C15.6273 6.58327 15.8629 6.68319 16.0804 6.79848C16.3361 5.15859 16.0783 4.04204 15.1964 3.03099C14.2242 1.91793 12.4694 1.44141 10.224 1.44141H3.70537C3.24671 1.44141 2.85545 1.77679 2.78456 2.23305L0.0693868 19.5368C0.0567399 19.6172 0.0615516 19.6993 0.0834909 19.7776C0.10543 19.8559 0.143976 19.9285 0.196478 19.9903C0.248979 20.0522 0.31419 20.1019 0.387624 20.1361C0.461059 20.1702 0.540974 20.1879 0.621873 20.188H4.64634L5.6568 13.7423L6.7437 6.82084Z" fill="#253B80"/>
</svg>
