<svg width="84" height="32" viewBox="0 0 84 32" fill="none" xmlns="http://www.w3.org/2000/svg">
<g clip-path="url(#clip0_2347_54645)">
<path d="M21.7244 2.78533C21.826 5.3068 23.816 14.9289 23.816 14.9289C24.5473 16.8777 25.1769 14.9289 25.1769 14.9289C27.5845 7.02406 22.6645 2.44309 22.6645 2.44309C21.4085 1.63948 21.7244 2.78533 21.7244 2.78533ZM50.2911 1.41153C50.2911 1.41153 52.6997 3.24427 50.2911 3.58772C50.2911 3.58772 41.2912 4.73297 34.5944 11.6087C34.5944 11.6087 24.5473 21.2289 20.7811 31.7695C20.7811 31.7695 19.5251 31.7695 19.9454 29.7082C20.3635 27.6463 22.8738 18.595 34.0697 7.48422C34.0697 7.48422 44.8514 -3.28555 50.2911 1.41153Z" fill="#FF4600"/>
<path d="M4.5038 16.665C4.90135 16.7568 5.25837 16.8018 5.78252 16.8018C7.83525 16.8018 9.21836 15.3562 9.21836 13.5204C9.21836 11.8688 8.15007 11.2731 6.76808 11.2731C6.15897 11.2731 5.69812 11.3193 5.40495 11.4099L4.5038 16.665ZM3.35111 9.50601C4.21063 9.27562 5.48935 9.13885 6.74642 9.13885C8.06734 9.13885 9.45045 9.4361 10.3722 10.2403C11.1895 10.9284 11.6714 11.9363 11.6714 13.315C11.6714 15.1495 10.8746 16.6425 9.86855 17.5136C8.73752 18.5002 7.12232 18.9822 5.44604 18.9822C4.94244 18.9822 4.5038 18.9123 4.12623 18.8673L3.09903 24.7188H0.710938L3.35111 9.50601Z" fill="black"/>
<path d="M18.1468 15.4688C17.8958 15.3989 17.5821 15.3546 17.1418 15.3546C14.8991 15.3546 13.1385 18.132 13.1385 20.679C13.1385 21.8473 13.5366 22.812 14.606 22.812C15.7575 22.812 17.1418 21.2528 17.6237 18.4067L18.1468 15.4688ZM17.1623 24.7171C17.1623 24.0502 17.2456 23.1567 17.3305 22.2145H17.2883C16.2828 24.2581 14.9197 24.9688 13.6204 24.9688C11.7976 24.9688 10.6016 23.4083 10.6016 21.1604C10.6016 17.3514 13.033 13.2896 17.7908 13.2896C18.9013 13.2896 20.0962 13.5188 20.893 13.7941L19.8241 19.6225C19.5299 21.2741 19.3627 23.3858 19.4049 24.7171H17.1623Z" fill="black"/>
<path d="M34.7641 20.2887C34.7641 21.8242 35.4976 22.9056 36.7552 22.9056C38.5786 22.9056 39.7946 20.1507 39.7946 17.9253C39.7946 16.777 39.3116 15.3546 37.8457 15.3546C35.8963 15.3546 34.7641 18.2006 34.7641 20.2887ZM42.3093 17.9034C42.3093 21.7111 39.8985 24.9688 36.4204 24.9688C33.8413 24.9688 32.25 23.0187 32.25 20.3562C32.25 16.5715 34.6598 13.2902 38.1389 13.2902C40.884 13.2902 42.3093 15.447 42.3093 17.9034Z" fill="black"/>
<path d="M42.7656 24.7188L44.0865 17.0084C44.3375 15.6772 44.4841 14.507 44.6101 13.5441H46.7911L46.5602 15.5404H46.6012C47.5435 14.0481 48.8439 13.2913 50.2692 13.2913C51.7356 13.2913 52.8677 14.256 52.8677 16.3665C52.8677 16.8704 52.7855 17.6504 52.68 18.2017L51.5673 24.7188H49.1154L50.2042 18.4084C50.2692 17.9956 50.3314 17.5136 50.3314 17.0771C50.3314 16.1361 50.0171 15.4705 49.0532 15.4705C47.9427 15.4705 46.5168 16.9385 46.0771 19.556L45.197 24.7188H42.7656Z" fill="black"/>
<path d="M59.367 15.2859C57.8362 15.2859 56.8312 16.777 56.5381 18.132C59.0522 18.1544 60.6674 17.7873 60.6674 16.4342C60.6674 15.7229 60.1432 15.2859 59.367 15.2859ZM61.6935 24.074C60.6868 24.6472 59.3259 24.9688 58.0883 24.9688C55.2616 24.9688 53.8984 23.0655 53.8984 20.3343C53.8984 16.9612 56.1605 13.2902 59.6818 13.2902C61.6935 13.2902 62.9722 14.5516 62.9722 16.4342C62.9722 19.3015 60.2276 20.2188 56.2876 20.1276C56.2449 20.5173 56.3287 21.2741 56.5597 21.7105C56.9584 22.4686 57.6896 22.8582 58.6552 22.8582C59.809 22.8582 60.7296 22.5366 61.4653 22.1239L61.6935 24.074Z" fill="black"/>
<path d="M68.8592 15.2859C67.3301 15.2859 66.3234 16.777 66.0302 18.132C68.5444 18.1544 70.1596 17.7873 70.1596 16.4342C70.1596 15.7229 69.6354 15.2859 68.8592 15.2859ZM71.1857 24.074C70.1807 24.6472 68.8181 24.9688 67.5827 24.9688C64.7537 24.9688 63.3906 23.0655 63.3906 20.3343C63.3906 16.9612 65.6527 13.2902 69.174 13.2902C71.1857 13.2902 72.4666 14.5516 72.4666 16.4342C72.4666 19.3015 69.7198 20.2188 65.7798 20.1276C65.7365 20.5173 65.8209 21.2741 66.0519 21.7105C66.4506 22.4686 67.1835 22.8582 68.1474 22.8582C69.3012 22.8582 70.2218 22.5366 70.9575 22.1239L71.1857 24.074Z" fill="black"/>
<path d="M72.6094 24.7188L73.8037 17.8345C74.0758 16.2516 74.2224 14.5307 74.3256 13.5441H76.4433C76.3806 14.3009 76.3184 15.0809 76.2129 15.8851H76.2751C76.9697 14.3927 78.078 13.2913 79.4622 13.2913C79.6521 13.2913 79.8397 13.315 80.008 13.315L79.5249 15.9307C79.3994 15.907 79.2318 15.907 79.0635 15.907C77.3228 15.907 76.2129 17.8345 75.8159 20.2205L75.0397 24.7188H72.6094Z" fill="black"/>
<path d="M81.8624 14.5656H82.0412C82.2244 14.5656 82.3455 14.4537 82.3455 14.2847C82.3455 14.0945 82.2183 14.0112 82.0351 14.0112C81.9507 14.0112 81.8907 14.0179 81.8624 14.0252V14.5656ZM81.6875 13.8914C81.7763 13.8738 81.9035 13.861 82.0218 13.861C82.2072 13.861 82.3305 13.9024 82.4121 13.9826C82.4793 14.0477 82.5181 14.1492 82.5181 14.2659C82.5181 14.458 82.4077 14.5881 82.2655 14.6397V14.647C82.3688 14.6859 82.4293 14.7923 82.4637 14.9455C82.507 15.1497 82.5392 15.2938 82.5676 15.3516H82.3866C82.3649 15.3066 82.3344 15.182 82.2999 14.9978C82.2588 14.7935 82.1839 14.7182 82.0262 14.7109H81.8624V15.3516H81.6875V13.8914Z" fill="black"/>
<path d="M82.0827 13.2887C81.4164 13.2887 80.875 13.8814 80.875 14.6109C80.875 15.3403 81.4164 15.9336 82.0827 15.9336C82.749 15.9336 83.2903 15.3403 83.2903 14.6109C83.2903 13.8814 82.749 13.2887 82.0827 13.2887ZM82.0827 13.493C82.6457 13.493 83.1026 13.992 83.1026 14.6109C83.1026 15.2291 82.6457 15.73 82.0827 15.73C81.518 15.73 81.0605 15.2291 81.0605 14.6109C81.0605 13.992 81.518 13.493 82.0827 13.493Z" fill="black"/>
</g>
<defs>
<clipPath id="clip0_2347_54645">
<rect width="83" height="32" fill="white" transform="translate(0.5)"/>
</clipPath>
</defs>
</svg>
