<svg width="60" height="60" viewBox="0 0 60 60" fill="none" xmlns="http://www.w3.org/2000/svg">
<path d="M46.3054 3.8147e-06H13.692C6.13047 3.8147e-06 0 6.13065 0 13.6929V46.3063C0 53.8695 6.13046 60 13.6902 60H13.8439C15.0682 60 16.077 59.0354 16.1318 57.811L16.7855 43.234C5.07927 40.6033 10.4907 17.41 19.0822 17.41C27.6719 17.41 33.0816 40.6033 21.3771 43.234L22.0308 57.811C22.0856 59.0354 23.0944 60 24.3187 60H35.7882C37.0143 60 38.0231 59.0336 38.0761 57.8093L38.758 42.2729C29.5217 40.3277 31.6276 26.2488 35.1539 19.1944C35.6415 18.2209 36.9401 18.2139 36.9401 19.0866V31.9641C36.9401 32.6161 37.4789 33.1425 38.1361 33.1231C38.7704 33.1037 39.2615 32.5507 39.2615 31.9147V19.1944C39.2615 18.1697 40.1219 17.3482 41.1625 17.4135C42.113 17.4736 42.832 18.3022 42.832 19.2545V31.9641C42.832 32.6161 43.3709 33.1425 44.0281 33.1231C44.6641 33.1037 45.1535 32.5507 45.1535 31.9147V19.0866C45.1535 18.2139 46.452 18.2209 46.9396 19.1944C50.4642 26.2488 52.5701 40.3277 43.3355 42.2729L44.0157 57.8093C44.0687 59.0336 45.0775 60 46.3036 60C53.8669 60 59.9974 53.8695 59.9974 46.3063V13.6911C59.9974 6.12995 53.8669 3.8147e-06 46.3054 3.8147e-06Z" fill="url(#paint0_linear_5190_5124)"/>
<defs>
<linearGradient id="paint0_linear_5190_5124" x1="59.9973" y1="-0.145755" x2="-0.00265116" y2="59.8516" gradientUnits="userSpaceOnUse">
<stop stop-color="#FF1843"/>
<stop offset="1" stop-color="#FF7E95"/>
</linearGradient>
</defs>
</svg>
