<svg width="60" height="61" viewBox="0 0 60 61" fill="none" xmlns="http://www.w3.org/2000/svg">
<path d="M46.3054 0.500004H13.692C6.13047 0.500004 0 6.63065 0 14.1929V46.8063C0 54.3695 6.13046 60.5 13.6902 60.5H13.8439C15.0682 60.5 16.077 59.5354 16.1318 58.311L16.7855 43.734C5.07927 41.1033 10.4907 17.91 19.0822 17.91C27.6719 17.91 33.0816 41.1033 21.3771 43.734L22.0308 58.311C22.0856 59.5354 23.0944 60.5 24.3187 60.5H35.7882C37.0143 60.5 38.0231 59.5336 38.0761 58.3093L38.758 42.7729C29.5217 40.8277 31.6276 26.7488 35.1539 19.6944C35.6415 18.7209 36.9401 18.7139 36.9401 19.5866V32.4641C36.9401 33.1161 37.4789 33.6425 38.1361 33.6231C38.7704 33.6037 39.2615 33.0507 39.2615 32.4147V19.6944C39.2615 18.6697 40.1219 17.8482 41.1625 17.9135C42.113 17.9736 42.832 18.8022 42.832 19.7545V32.4641C42.832 33.1161 43.3709 33.6425 44.0281 33.6231C44.6641 33.6037 45.1535 33.0507 45.1535 32.4147V19.5866C45.1535 18.7139 46.452 18.7209 46.9396 19.6944C50.4642 26.7488 52.5701 40.8277 43.3355 42.7729L44.0157 58.3093C44.0687 59.5336 45.0775 60.5 46.3036 60.5C53.8669 60.5 59.9974 54.3695 59.9974 46.8063V14.1911C59.9974 6.62995 53.8669 0.500004 46.3054 0.500004Z" fill="url(#paint0_linear_5206_5035)"/>
<defs>
<linearGradient id="paint0_linear_5206_5035" x1="59.9973" y1="0.354245" x2="-0.00265116" y2="60.3516" gradientUnits="userSpaceOnUse">
<stop stop-color="#FF1843"/>
<stop offset="1" stop-color="#FF7E95"/>
</linearGradient>
</defs>
</svg>
