<svg width="52" height="18" viewBox="0 0 52 18" fill="none" xmlns="http://www.w3.org/2000/svg">
<path d="M22.6402 16.9173H18.5199L21.095 1.09138H25.2158L22.6402 16.9173ZM15.0536 1.09138L11.1255 11.9766L10.6607 9.63257L10.6611 9.63342L9.27468 2.51632C9.27468 2.51632 9.10704 1.09138 7.32015 1.09138H0.8262L0.75 1.35935C0.75 1.35935 2.73586 1.77252 5.05997 3.16826L8.63968 16.9177H12.9327L19.488 1.09138H15.0536ZM47.462 16.9173H51.2453L47.9467 1.09096H44.6345C43.105 1.09096 42.7325 2.27037 42.7325 2.27037L36.5874 16.9173H40.8825L41.7415 14.5665H46.9794L47.462 16.9173ZM42.9281 11.3191L45.093 5.39669L46.3109 11.3191H42.9281ZM36.9095 4.89715L37.4975 1.49863C37.4975 1.49863 35.6831 0.808594 33.7917 0.808594C31.747 0.808594 26.8913 1.70225 26.8913 6.04778C26.8913 10.1363 32.5902 10.1871 32.5902 12.3347C32.5902 14.4823 27.4785 14.0975 25.7915 12.7432L25.1789 16.2967C25.1789 16.2967 27.0187 17.1904 29.8297 17.1904C32.6415 17.1904 36.8833 15.7345 36.8833 11.7721C36.8833 7.65729 31.1331 7.27418 31.1331 5.48517C31.1335 3.69573 35.1463 3.9256 36.9095 4.89715Z" fill="#2566AF"/>
</svg>
